<svg xmlns="http://www.w3.org/2000/svg" width="1024" height="1024" viewBox="0 0 1024 1024">
  <defs>
    <linearGradient id="g" gradientUnits="userSpaceOnUse" x1="10" y1="0" x2="55" y2="0">
      <stop offset="0" stop-color="#315BFF"></stop>
      <stop offset="0.55" stop-color="#7B2CFF"></stop>
      <stop offset="1" stop-color="#F037FF"></stop>
    </linearGradient>
    <clipPath id="tile"><rect x="0" y="0" width="1024" height="1024" rx="230.40" ry="230.40"></rect></clipPath>
  </defs>
  <g clip-path="url(#tile)">
    <rect x="0" y="0" width="1024" height="1024" fill="#0A0A14"></rect>
    <g transform="scale(17.066666666666666)">
      <g transform="translate(32 30) scale(1.72) translate(-32 -30)">
        <path d="M53.3312225,17.7051024 C52.2275729,20.2974439 47.415748,31.8563446 47.0036313,35.6948032 C48.0937042,35.4523697 49.3471349,33.9307401 50.5134123,31.9481821 C50.6347261,31.7248995 50.6947261,31.5011816 50.8182298,31.5007464 C51.065675,31.4998759 51.5443612,32.5836453 51.77604,33.0585016 C51.8601276,33.2513168 52.026551,33.4145351 52.1005656,33.622584 C52.1745802,33.8301976 52.1772079,34.0978756 52.01604,34.4704485 C51.3704926,35.9598697 48.6275729,39.0788622 47.0045072,39.0853909 C45.5829013,39.0910491 44.4288867,38.0695204 44.0903466,37.1189371 C44.0531203,37.0149127 44.0320984,36.9113235 44.0102006,36.807299 C43.676478,34.7411732 46.8823174,26.1032268 48.4519524,22.0815284 C45.7147261,26.301265 39.426551,36.4978372 37.8814415,38.1992245 C37.7487407,38.3485148 37.5534123,38.4085791 37.2910765,38.4098849 C36.5180838,38.4129316 35.3631933,37.8227343 35.1201276,37.139829 L35.0934123,37.0649663 C34.8897626,36.2332059 36.6170619,26.4858104 37.6948721,22.2134088 C35.8326823,25.3885484 32.7551641,31.3640783 31.4010035,38.021643 C31.345821,38.4020504 31.2647991,38.8594968 31.1408575,39.4353309 C31.1272809,39.5302151 31.1040692,39.6068189 31.0734123,39.66993 C30.2912225,42.578262 27.2912225,42.7662895 26.4148721,42.754973 L26.4096167,42.7558435 C26.4069889,42.7558435 26.4047991,42.754973 26.4047991,42.754973 C26.2572079,42.7527968 26.1669889,42.746268 26.1669889,42.746268 L26.175748,42.7358221 C24.8215875,42.6352796 23.7380838,41.65597 23.4083028,40.7306311 C23.3702006,40.62356 23.3483028,40.5164888 23.3255291,40.4094176 C22.9821714,38.2814865 26.2834853,29.3850023 27.9004196,25.2431753 C25.0812955,29.5891339 18.6047991,40.0908155 17.0137042,41.8431269 C16.8770619,41.9967697 16.67604,42.0590103 16.4053831,42.0598808 C15.6091787,42.0633628 14.4201276,41.4553203 14.1696167,40.7519583 L14.1420254,40.6753546 C13.9326823,39.8179145 15.7112225,29.7789024 16.8214415,25.3789729 C14.7687407,28.8792432 11.2804196,35.6830515 10.0716604,43.1162295 C10.016478,43.4996836 9.81633198,43.6076253 9.52947067,43.6084958 C9.29078454,43.6098015 8.97720789,43.5340683 8.57822979,43.4439718 C7.67385023,43.2328761 6.95385023,42.8220013 6.71954366,42.1647757 C6.19049257,40.6810128 12.8487407,23.3572425 16.5083028,20.2952676 C16.8131203,20.0336831 17.0885948,19.9562088 17.295748,19.9553384 C17.645675,19.9535974 17.8598356,20.1520708 17.9872809,20.1516355 C18.0350181,20.1516355 18.0617334,20.1355313 18.0823174,20.1050639 C18.1655291,19.9361874 18.4567699,19.8587131 18.8229013,19.8569721 C19.5871349,19.8543606 20.7100546,20.1864554 20.8572079,20.5999417 C20.8734123,20.6452076 20.8681568,20.6761103 20.8690327,20.7222466 C20.8502006,21.5644529 18.5894707,30.51839 17.5900546,36.0360382 C19.4605656,32.3372945 26.0509305,21.5748989 28.7496167,19.6188911 C28.8337042,19.5422873 28.965967,19.5109494 29.1411495,19.5100789 C29.4275729,19.5092084 29.8050911,19.5845064 30.3477188,19.7198688 C30.9595437,19.8704648 31.8402736,19.8822166 32.1118064,19.9270472 C32.4520984,19.9875468 32.835748,20.2156171 32.9338502,20.4906943 C32.9614415,20.5672981 32.9623174,20.6591356 32.9255291,20.7357393 C31.7890327,23.4055551 26.8331203,35.3104786 26.4087407,39.2638429 C26.4923904,39.2451272 26.5769159,39.2190123 26.6618794,39.1863686 C26.6706386,39.1824514 26.6798356,39.1785341 26.6890327,39.1746169 C26.7245072,39.1602537 26.7604196,39.1411027 26.796332,39.1245633 C27.1589597,38.9300071 27.6893247,38.4651615 27.9915145,37.3548419 C27.9919524,37.3526657 27.9928283,37.3509247 27.9932663,37.3487484 C28.9077188,33.1721015 34.2709305,19.8878748 37.3904926,17.2772529 C37.6869889,17.0230676 37.9545802,16.9477696 38.1556021,16.9468991 C38.4954561,16.9455933 38.7034853,17.1384085 38.8269889,17.1379733 C38.8734123,17.137538 38.8988137,17.1223043 38.9189597,17.0927074 C38.9999816,16.9286186 39.2829013,16.8533206 39.6385218,16.8520148 C40.3804196,16.8489681 41.4704926,17.1719227 41.6137042,17.573222 C41.6294707,17.6171821 41.6242152,17.6472143 41.6246531,17.6920449 C41.6066969,18.5098773 39.4116604,27.2035356 38.4415875,32.5605771 C40.2577918,28.969775 46.656332,18.519888 49.276624,16.6204625 C49.3580838,16.546035 49.4868429,16.5155676 49.6567699,16.5151323 C49.9348721,16.5138266 50.3014415,16.5869484 50.8283028,16.7183935 C51.4221714,16.8650723 52.2774999,16.8763888 52.5411495,16.9199136 C52.8713685,16.978237 53.2440692,17.1997786 53.3395437,17.4670213 C53.365821,17.5414488 53.3671349,17.6306748 53.3312225,17.7051024" fill="url(#g)"></path>
      </g>
    </g>
  </g>
</svg>