<svg width="600" height="145" viewBox="0 0 120 29" fill="none" xmlns="http://www.w3.org/2000/svg">
  <path fill="#FFFFFF" d="M0 27.3906C1.09187 22.4019 8.5075 4.03866 12.2635 0.919809C12.512 0.682809 12.8391 0.542564 13.1843 0.525017C13.5938 0.525017 13.8431 0.752919 13.9923 0.752919C14.0366 0.75659 14.0793 0.735885 14.1033 0.699084C14.2016 0.503483 14.5419 0.413757 14.9696 0.411963C15.8631 0.411963 17.1751 0.794193 17.348 1.27333C17.3613 1.31936 17.3656 1.36747 17.3608 1.41509C17.3389 2.3913 14.6966 12.7761 13.5283 19.1807C15.7175 14.8793 23.4188 2.39669 26.5689 0.128431C26.701 0.0325986 26.8642 -0.0120984 27.0275 0.00281516C27.5054 0.0299479 27.9787 0.111236 28.4378 0.245074C29.153 0.424524 30.183 0.433497 30.4996 0.485538C30.8981 0.555524 31.3458 0.819316 31.4605 1.13874C31.4948 1.23084 31.4915 1.33249 31.4514 1.42227C30.1229 4.5178 24.3305 18.3247 23.8337 22.9097C25.1458 22.6208 26.6544 20.803 28.0593 18.4342C28.2067 18.1668 28.2777 17.8959 28.4232 17.8959C28.7217 17.8959 29.2967 19.1897 29.577 19.7568C29.6789 19.9865 29.8791 20.1821 29.9682 20.4297C30.0574 20.6773 30.061 20.9968 29.8663 21.4418C29.0893 23.2202 25.7882 26.9456 23.8337 26.9545C22.1213 26.9545 20.7401 25.7414 20.3252 24.6055C20.2844 24.4834 20.2522 24.3587 20.2287 24.2323C19.8266 21.7648 23.6863 11.4464 25.5753 6.64608C22.2796 11.6869 14.7111 23.8734 12.8513 25.8976C12.6635 26.081 12.403 26.173 12.1398 26.1488C11.2099 26.1488 9.81956 25.4471 9.52658 24.6324L9.49382 24.5427C9.24815 23.5486 11.3282 11.9058 12.6257 6.80221C10.391 10.603 5.73415 20.2359 4.10544 28.1874L3.27561 28.4709C2.84231 28.6282 2.37426 28.6684 1.91987 28.5875H1.87984C1.46361 28.4925 1.07704 28.2991 0.753391 28.0241L0 27.3906Z"/>
  <path fill="#FFFFFF" d="M59.2197 27.7636C60.3115 22.7723 67.7267 4.39992 71.4826 1.2795C71.731 1.04238 72.0581 0.902064 72.4033 0.884508C72.8127 0.884508 73.062 1.11252 73.2113 1.11252C73.2555 1.1162 73.2982 1.09548 73.3223 1.05866C73.4205 0.862963 73.7608 0.773193 74.1884 0.771397C75.0819 0.771397 76.3939 1.15382 76.5667 1.63319C76.58 1.67925 76.5844 1.72738 76.5795 1.77503C76.5576 2.75173 73.9155 13.1418 72.7472 19.5496C74.9308 15.2585 82.6354 2.76969 85.7889 0.500291C85.921 0.404411 86.0841 0.359691 86.2474 0.374612C86.7254 0.401759 87.1986 0.483087 87.6577 0.616992C88.3728 0.796533 89.4028 0.80551 89.7194 0.857577C90.1179 0.927598 90.5655 1.19152 90.6802 1.51111C90.7145 1.60325 90.7113 1.70496 90.6711 1.79478C89.3482 4.89006 83.5543 18.695 83.0575 23.2822C84.3695 22.9932 85.878 21.1744 87.2828 18.8045C87.4302 18.537 87.5012 18.2659 87.6468 18.2659C87.9452 18.2659 88.5202 19.5603 88.8005 20.1277C88.9024 20.3575 89.1025 20.5532 89.1917 20.801C89.2808 21.0487 89.2845 21.3683 89.0898 21.8136C88.3146 23.6 85.0137 27.3327 83.0575 27.3327C81.3452 27.3327 79.9641 26.119 79.5492 24.9825C79.5084 24.8603 79.4762 24.7355 79.4528 24.609C79.0506 22.1403 82.9101 11.8167 84.799 7.01403C81.5035 12.0573 73.9355 24.25 72.0758 26.2752C71.888 26.4587 71.6274 26.5507 71.3643 26.5265C70.4344 26.5265 69.0442 25.8245 68.7512 25.0094L68.7185 24.9196C68.4728 23.925 70.5527 12.2764 71.8501 7.17023C69.6083 10.9657 64.9535 20.6035 63.3231 28.5589L62.4952 28.8426C62.0619 29 61.5938 29.0403 61.1395 28.9593H61.0995C60.6833 28.8642 60.2967 28.6707 59.9731 28.3955L59.2197 27.7636Z"/>
  <path fill="#FFFFFF" d="M30.0835 18.2142C29.9599 17.9657 29.9525 17.5372 30.0612 16.9286C30.1964 16.2212 30.3759 15.5225 30.5988 14.8363C30.8459 14.0489 31.14 13.2272 31.4811 12.3713C31.8222 11.5155 32.1602 10.7208 32.4951 9.98738C32.8312 9.25395 33.1401 8.62975 33.4219 8.11478C33.7037 7.59981 33.915 7.29191 34.0559 7.19108C34.2191 7.09653 34.4182 7.08057 34.5953 7.14787C34.838 7.21344 35.0714 7.30778 35.2904 7.42876C35.5113 7.54742 35.7151 7.69394 35.8965 7.8645C36.0348 7.97008 36.1311 8.11899 36.169 8.28583C36.1234 8.63549 36.0208 8.97585 35.865 9.29416C35.6624 9.77431 35.4109 10.3361 35.1106 10.9795C34.8103 11.6229 34.4896 12.2975 34.1485 13.0034C33.805 13.714 33.5004 14.3838 33.2347 15.0128C33.0039 15.5479 32.8052 16.0956 32.6397 16.6531C32.505 17.1129 32.492 17.4172 32.6007 17.566C32.6922 17.6777 32.9115 17.5852 33.2588 17.2887C33.7094 16.8863 34.1271 16.4505 34.5081 15.9851C34.9926 15.4113 35.519 14.7361 36.0875 13.9595C36.6559 13.1828 37.2065 12.3719 37.7391 11.5269C38.2729 10.6866 38.7555 9.84634 39.1868 9.00607C39.5782 8.26078 39.9098 7.48723 40.1785 6.69232C40.6044 6.8444 41.022 7.01749 41.4297 7.21089C41.8208 7.40992 42.1358 7.72545 42.3287 8.11118C42.3843 8.22401 42.3467 8.4749 42.2157 8.86382C42.0432 9.35093 41.8427 9.82823 41.6151 10.2935C41.3457 10.8601 41.0207 11.4879 40.6401 12.1769C40.2594 12.8659 39.8399 13.5675 39.3814 14.2818C38.9242 14.9936 38.4441 15.6862 37.9411 16.3596C37.4738 16.9916 36.9688 17.5965 36.4285 18.171C35.9786 18.6558 35.482 19.0977 34.9456 19.4908C34.5628 19.7955 34.1023 19.994 33.6128 20.0652C33.4361 20.0903 33.2558 20.0749 33.0864 20.0202C32.925 19.9653 32.7693 19.896 32.6211 19.8131C32.4619 19.7229 32.3078 19.6244 32.1596 19.5178C32.0014 19.405 31.8413 19.3012 31.6795 19.2063C31.5212 19.1198 31.3564 19.0452 31.1864 18.9831L30.7526 18.8264C30.6178 18.7759 30.4926 18.7041 30.3819 18.614C30.2535 18.5036 30.1516 18.3671 30.0835 18.2142Z"/>
  <path fill="#FFFFFF" d="M48.3507 17.3613C48.2193 17.3331 48.0905 17.2943 47.9657 17.2453C47.818 17.2046 47.6613 17.2084 47.5158 17.2561C47.2924 17.3093 47.0743 17.3821 46.8642 17.4736C46.5952 17.5848 46.3033 17.7086 45.9886 17.8451C45.6739 17.9816 45.3407 18.1206 44.989 18.2619C44.6373 18.4009 44.309 18.5271 44.0042 18.6407C43.7299 18.7442 43.45 18.8325 43.1656 18.9053C42.9838 18.9649 42.7893 18.9774 42.601 18.9415C42.3909 18.8776 42.2026 18.7585 42.0568 18.5972C41.8633 18.3968 41.692 18.1769 41.5459 17.9412C41.3848 17.6858 41.2466 17.4172 41.1331 17.1383C41.0255 16.8891 40.9394 16.6315 40.8758 16.3681C40.8305 16.0413 40.8577 15.7088 40.9554 15.3932C41.0824 14.9094 41.2414 14.4342 41.4311 13.9705C41.6421 13.4402 41.889 12.8753 42.1716 12.2761C42.4542 11.6769 42.7479 11.0794 43.0527 10.4838C43.766 9.09924 44.5922 7.59569 45.5314 5.97313C45.7161 5.93097 45.9094 5.94359 46.0867 6.00937C46.3147 6.081 46.5329 6.17958 46.7365 6.30295C46.9469 6.42911 47.1435 6.57607 47.3233 6.74152C47.476 6.87086 47.5974 7.0318 47.6787 7.2127C47.7207 7.30452 47.6658 7.52259 47.514 7.86692C47.3622 8.21124 47.1586 8.6341 46.9031 9.13549C46.6476 9.63325 46.3539 10.1866 46.0219 10.7955C45.69 11.4044 45.3586 12.0278 45.0279 12.6657C44.6971 13.3036 44.3886 13.9343 44.1023 14.5577C43.8426 15.1097 43.6128 15.6747 43.4137 16.2503C43.742 16.1295 44.0733 16.0087 44.4077 15.8879C44.7422 15.7671 45.0631 15.6674 45.3703 15.5889C45.6411 15.5105 45.9169 15.45 46.196 15.4077C46.3835 15.3704 46.5767 15.3704 46.7643 15.4077C47.1404 15.5599 47.471 15.8031 47.725 16.1144C48.0472 16.4655 48.2637 16.8971 48.3507 17.3613Z"/>
  <path fill="#FFFFFF" d="M51.0308 18.9616C50.8299 18.8215 50.6136 18.6766 50.3819 18.5268C50.1502 18.3771 49.9351 18.2291 49.7366 18.083C49.565 17.9579 49.4054 17.8179 49.2596 17.6646C49.1521 17.5684 49.0939 17.4303 49.1006 17.2878C49.2017 16.6169 49.3758 15.9586 49.6202 15.3242C49.895 14.573 50.2217 13.7947 50.6001 12.9892C50.9785 12.1837 51.379 11.3891 51.8018 10.6054C52.2246 9.8204 52.6135 9.11756 52.9685 8.49684C52.7187 8.491 52.4695 8.52153 52.2289 8.58741C51.9343 8.65866 51.6367 8.73595 51.3359 8.81928C51.0352 8.9026 50.764 8.96963 50.5224 9.02035C50.3622 9.07617 50.1872 9.07617 50.0269 9.02035C49.9141 8.93325 49.8236 8.82162 49.7625 8.69429C49.6568 8.51008 49.566 8.31809 49.4907 8.12006C49.4156 7.93184 49.3538 7.73877 49.3059 7.54221C49.2633 7.36106 49.2707 7.24151 49.3262 7.17992C49.6106 6.91149 49.955 6.71177 50.332 6.59663C50.868 6.40372 51.4165 6.24578 51.9738 6.12385C52.5901 5.98497 53.2359 5.87085 53.9114 5.78148C54.5868 5.69212 55.2302 5.63174 55.8416 5.60034C56.3748 5.56913 56.9095 5.56913 57.4427 5.60034C57.7704 5.59958 58.0942 5.66946 58.3912 5.80503C58.5097 5.88624 58.6161 5.98317 58.7073 6.09305C58.8394 6.2457 58.9629 6.40535 59.0771 6.57127C59.199 6.74573 59.3102 6.9272 59.4099 7.11471C59.4908 7.26758 59.5528 7.42933 59.5948 7.59655C59.3483 7.59655 59.0346 7.61648 58.6537 7.65633C58.2728 7.69618 57.8981 7.74026 57.5296 7.78856C57.1951 7.83241 56.8631 7.89287 56.5349 7.96971C56.3478 8.00302 56.167 8.0641 55.9987 8.15085C55.8465 8.36469 55.7141 8.59142 55.6031 8.82833C55.3837 9.24134 55.1156 9.76666 54.7988 10.4043C54.4821 11.0419 54.1357 11.7538 53.7598 12.54C53.39 13.3274 53.0282 14.1171 52.6745 14.9094C52.3207 15.7016 51.9953 16.4533 51.6983 17.1646C51.4099 17.8723 51.1874 18.4713 51.0308 18.9616Z"/>
  <path fill="#FFFFFF" d="M58.2119 18.218C58.0239 18.0757 57.8315 17.9317 57.6349 17.7859C57.4487 17.6499 57.2695 17.5044 57.0983 17.3501C56.9595 17.2252 56.8326 17.0879 56.7191 16.9399C56.6297 16.8403 56.586 16.7082 56.5982 16.5752C56.715 15.8501 56.8927 15.1359 57.1294 14.4403C57.3919 13.6368 57.7039 12.8097 58.0654 11.9589C58.4268 11.108 58.8127 10.2706 59.223 9.44648C59.6296 8.62604 60.0161 7.8846 60.3824 7.22216C60.7487 6.55973 61.076 6.01277 61.3642 5.58127C61.6463 5.15586 61.8386 4.9158 61.9412 4.8611C62.0437 4.80641 62.2324 4.83254 62.5071 4.9395C62.7759 5.05026 63.0325 5.18834 63.2728 5.35155C63.5041 5.50448 63.7163 5.68444 63.9047 5.88757C64.0769 6.07719 64.1306 6.22183 64.0659 6.3215C63.9377 6.54271 63.735 6.89581 63.4578 7.38078C63.1806 7.86576 62.8637 8.43582 62.5071 9.09096C62.1518 9.74731 61.7733 10.4632 61.3715 11.2387C60.9698 12.0142 60.5723 12.8042 60.1791 13.6089C59.7859 14.4147 59.4159 15.2127 59.0691 16.0028C58.7223 16.7928 58.4366 17.5312 58.2119 18.218Z"/>
  <path fill="#FFFFFF" d="M89.3032 17.8449C89.1796 17.595 89.1722 17.1655 89.2809 16.5564C89.4161 15.8484 89.5956 15.1491 89.8185 14.4623C90.0657 13.6754 90.3598 12.8531 90.7008 11.9953C91.0419 11.1375 91.3799 10.3422 91.7148 9.60931C92.0509 8.87526 92.3598 8.25113 92.6416 7.73694C92.9234 7.22274 93.1347 6.91458 93.2755 6.81247C93.4384 6.71867 93.6366 6.70273 93.8131 6.76922C94.0557 6.8352 94.2891 6.9296 94.5082 7.05034C94.7292 7.1691 94.933 7.31574 95.1144 7.48645C95.2563 7.59295 95.3548 7.74491 95.3924 7.91535C95.3476 8.26523 95.2456 8.60591 95.0903 8.92452C94.8876 9.40507 94.6361 9.96732 94.3358 10.6113C94.0355 11.2552 93.713 11.928 93.3682 12.6296C93.0247 13.3408 92.7201 14.0118 92.4544 14.6425C92.2237 15.1782 92.025 15.7263 91.8594 16.2843C91.7284 16.748 91.7154 17.0525 91.8204 17.1979C91.9119 17.3096 92.1312 17.2171 92.4785 16.9204C92.9291 16.5176 93.3468 16.0814 93.7278 15.6157C94.2122 15.0414 94.7387 14.3656 95.3071 13.5883C95.8756 12.811 96.4261 12.0013 96.9587 11.1591C97.4926 10.3181 97.9751 9.47716 98.4064 8.63618C98.7977 7.89023 99.1293 7.11603 99.3981 6.3205C99.8237 6.47132 100.241 6.64273 100.649 6.83409C101.04 7.03349 101.355 7.34923 101.548 7.73514C101.604 7.84867 101.567 8.09555 101.435 8.48661C101.263 8.97406 101.063 9.45176 100.837 9.91747C100.567 10.4833 100.242 11.1117 99.8597 11.8025C99.4778 12.4933 99.0583 13.1943 98.6011 13.9055C98.1438 14.6179 97.6637 15.3111 97.1608 15.9851C96.6932 16.6175 96.1882 17.2228 95.6482 17.798C95.1981 18.283 94.7015 18.7253 94.1653 19.1189C93.7824 19.4237 93.3219 19.6223 92.8325 19.6938C92.6557 19.7186 92.4754 19.7025 92.3061 19.647C92.1447 19.5921 91.9889 19.5227 91.8408 19.4397C91.6816 19.3494 91.5275 19.2507 91.3793 19.1442C91.2211 19.0312 91.0611 18.9273 90.8992 18.8324C90.741 18.7457 90.5761 18.671 90.4061 18.6089L89.9724 18.4522C89.8376 18.4016 89.7123 18.3298 89.6016 18.2395C89.4738 18.1306 89.3719 17.996 89.3032 17.8449Z"/>
  <path fill="#FFFFFF" d="M106.182 10.9437C106.409 10.6441 106.618 10.355 106.81 10.0761C106.982 9.8317 107.133 9.57191 107.259 9.29994C107.359 9.09614 107.408 8.87019 107.401 8.64245C107.384 8.42825 107.275 8.23235 107.105 8.10551C106.946 8.00497 106.75 7.98797 106.578 8.05985C106.333 8.14219 106.102 8.26231 105.893 8.41599C105.643 8.59253 105.412 8.79448 105.202 9.01868C105.006 9.22152 104.838 9.45073 104.702 9.69991C104.59 9.91665 104.501 10.1458 104.44 10.383C104.378 10.6211 104.361 10.8689 104.39 11.1135C104.422 11.3705 104.503 11.6186 104.629 11.844C104.79 12.1247 105.002 12.3724 105.253 12.5746C105.523 12.8094 105.826 13.002 106.152 13.1462C106.5 13.3075 106.826 13.5164 107.119 13.7672C107.425 14.0345 107.657 14.3773 107.795 14.7626C107.948 15.1741 107.954 15.7275 107.813 16.4227C107.715 16.9065 107.49 17.3541 107.16 17.7176C106.823 18.0841 106.411 18.372 105.954 18.5614C105.448 18.7708 104.913 18.8983 104.368 18.9394C103.776 18.9885 103.179 18.9559 102.595 18.8426C102.058 18.7513 101.54 18.5659 101.065 18.2947C100.694 18.0807 100.353 17.8159 100.053 17.5076C99.8267 17.2779 99.6412 17.0104 99.5045 16.7168C99.4179 16.5443 99.3573 16.3596 99.3247 16.1688C99.3311 16.025 99.3835 15.8871 99.4739 15.7762C99.5923 15.6074 99.7195 15.4452 99.8551 15.2904C100.001 15.1211 100.16 14.9507 100.33 14.779C100.5 14.6073 100.65 14.4527 100.779 14.3151C100.879 14.6875 101.056 15.0338 101.299 15.3306C101.535 15.6164 101.813 15.8629 102.124 16.0611C102.426 16.2561 102.754 16.4079 103.097 16.5122C103.406 16.6102 103.728 16.6613 104.052 16.6638C104.318 16.6683 104.583 16.618 104.83 16.5159C105.037 16.4339 105.201 16.2686 105.283 16.0593C105.372 15.8752 105.38 15.6619 105.307 15.4712C105.216 15.2975 105.082 15.1509 104.918 15.0456C104.712 14.9033 104.494 14.781 104.266 14.6804C104.014 14.5671 103.761 14.4387 103.507 14.295C103.254 14.1513 103.013 13.9857 102.788 13.8001C102.56 13.6116 102.376 13.3747 102.248 13.1061C101.933 12.4679 101.783 11.7591 101.811 11.0459C101.836 10.3636 101.989 9.69239 102.261 9.06799C102.539 8.44154 102.92 7.86731 103.386 7.36949C103.834 6.88057 104.354 6.46584 104.927 6.14035C105.452 5.83955 106.033 5.65297 106.633 5.59245C107.2 5.53252 107.771 5.64706 108.273 5.92119C108.743 6.14937 109.139 6.50853 109.415 6.95673C109.642 7.33781 109.778 7.76747 109.812 8.21143C109.839 8.6466 109.79 9.08313 109.667 9.50084C109.551 9.90227 109.398 10.2913 109.208 10.6624C109.057 10.9667 108.872 11.2528 108.658 11.5153C108.469 11.7406 108.328 11.8623 108.235 11.8806C108.041 11.9307 107.838 11.935 107.642 11.8934C107.476 11.8502 107.318 11.7792 107.175 11.6833C107.018 11.5782 106.868 11.4635 106.725 11.34C106.554 11.1944 106.373 11.0619 106.182 10.9437Z"/>
  <path fill="#FFFFFF" d="M115.34 5.25311C115.609 5.22289 115.877 5.17873 116.142 5.12079L116.932 4.95356C117.165 4.90476 117.4 4.86856 117.637 4.84513C117.82 4.82287 118.006 4.83219 118.186 4.87269C118.712 5.0024 119.17 5.32744 119.467 5.7824C119.751 6.24544 119.914 6.7735 119.939 7.31694L119.633 7.27467L119.313 7.23424C118.942 7.21115 118.571 7.22902 118.204 7.28754C117.876 7.34202 117.551 7.4138 117.23 7.50256C116.927 7.58832 116.636 7.67899 116.358 7.77455C116.079 7.87011 115.817 7.94975 115.571 8.01346L114.097 10.5864L114.846 10.3144C115.088 10.224 115.336 10.1479 115.587 10.0865C115.804 10.0329 116.026 10.0009 116.25 9.99091C116.427 9.98017 116.605 10.0084 116.771 10.0736C117.118 10.2352 117.415 10.4895 117.628 10.8087C117.861 11.1551 117.984 11.5648 117.979 11.9831C117.896 11.9299 117.797 11.9048 117.699 11.9114C117.595 11.9185 117.492 11.9314 117.39 11.95C117.037 12.0104 116.688 12.0927 116.345 12.1963C115.931 12.3126 115.515 12.4352 115.095 12.5638C114.675 12.6925 114.289 12.8278 113.936 12.97C113.685 13.0611 113.441 13.1698 113.204 13.2952C113.001 13.4053 112.82 13.5538 112.672 13.7326C112.53 13.9093 112.411 14.1032 112.317 14.3097C112.218 14.5253 112.123 14.7581 112.031 15.0081C111.94 15.258 111.837 15.5177 111.724 15.7873C112.001 15.6648 112.28 15.5361 112.562 15.4013C112.844 15.2666 113.115 15.1477 113.376 15.0448C113.615 14.9455 113.86 14.8608 114.108 14.7912C114.309 14.7328 114.518 14.7073 114.727 14.7159C114.894 14.7403 115.051 14.8074 115.185 14.9107C115.364 15.0359 115.525 15.1848 115.664 15.3536C115.817 15.5437 115.947 15.7517 116.05 15.9729C116.158 16.1998 116.228 16.4433 116.257 16.6933C116.182 16.6398 116.098 16.6 116.01 16.5757C115.889 16.5588 115.766 16.5521 115.644 16.5555C115.499 16.5841 115.359 16.6323 115.227 16.6988C115.018 16.7895 114.774 16.8973 114.495 17.0223L113.594 17.4284C113.271 17.5742 112.956 17.7108 112.65 17.8382C112.377 17.9535 112.098 18.0523 111.814 18.1341C111.623 18.1961 111.423 18.2241 111.223 18.2168C110.855 18.1686 110.501 18.0433 110.185 17.8493C109.884 17.6407 109.633 17.3661 109.453 17.0462C109.3 16.7888 109.186 16.5101 109.114 16.2192C109.049 15.9386 109.055 15.6461 109.131 15.3683C109.28 14.8034 109.471 14.2505 109.702 13.7143C109.969 13.071 110.274 12.3972 110.617 11.6927C110.96 10.9882 111.326 10.2703 111.715 9.53882C112.102 8.80983 112.468 8.13598 112.813 7.51726C113.158 6.89854 113.463 6.35456 113.728 5.88531C113.995 5.42096 114.188 5.08955 114.306 4.89107C114.382 4.86257 114.466 4.86656 114.539 4.9021C114.631 4.94247 114.721 4.99041 114.806 5.04544C114.899 5.10609 114.989 5.15939 115.075 5.20717C115.157 5.24733 115.249 5.26326 115.34 5.25311Z"/>
</svg>
